<?xml version="1.0" standalone="no"?>
<!DOCTYPE svg PUBLIC "-//W3C//DTD SVG 20010904//EN"
 "http://www.w3.org/TR/2001/REC-SVG-20010904/DTD/svg10.dtd">
<svg version="1.0" xmlns="http://www.w3.org/2000/svg"
 width="1536.000000pt" height="1536.000000pt" viewBox="0 0 1536.000000 1536.000000"
 preserveAspectRatio="xMidYMid meet">

<g transform="translate(0.000000,1536.000000) scale(0.100000,-0.100000)"
fill="#000000" stroke="none">
<path d="M0 7680 l0 -7680 7680 0 7680 0 0 7680 0 7680 -7680 0 -7680 0 0
-7680z m8275 4423 l570 -330 6 -404 c6 -431 7 -445 61 -572 79 -186 235 -347
414 -428 214 -97 472 -98 679 0 33 15 189 103 348 194 158 92 291 167 295 167
4 0 266 -150 582 -333 l575 -332 2 -675 2 -675 -271 -155 c-149 -85 -298 -172
-331 -193 -126 -80 -237 -209 -301 -349 -57 -122 -70 -186 -70 -338 0 -163 14
-222 86 -368 40 -82 66 -120 129 -187 94 -98 98 -101 468 -315 l286 -166 2
-674 3 -675 -572 -330 c-314 -181 -578 -331 -585 -333 -7 -2 -152 76 -321 174
-324 187 -377 213 -499 240 -105 23 -299 15 -398 -16 -243 -77 -429 -245 -523
-473 -57 -135 -62 -188 -62 -596 l0 -371 -37 -23 c-188 -118 -1113 -642 -1133
-642 -16 0 -253 131 -597 330 l-572 329 -3 401 c-4 378 -6 404 -27 474 -109
363 -420 601 -788 601 -118 0 -218 -19 -312 -58 -36 -16 -201 -106 -365 -201
-249 -144 -304 -172 -322 -165 -12 5 -274 155 -583 333 l-561 325 0 675 1 676
296 170 c335 192 384 225 466 316 213 234 272 572 151 861 -38 91 -125 217
-192 280 -76 70 -113 93 -444 284 l-278 159 0 675 0 675 568 327 c312 180 574
329 582 333 9 3 139 -66 320 -171 322 -186 373 -211 485 -239 100 -26 284 -24
388 4 283 75 502 291 588 581 21 70 23 100 28 475 l6 400 575 332 c367 213
582 332 595 329 11 -2 277 -152 590 -333z"/>
<path d="M6603 10190 c-335 -36 -612 -277 -705 -615 -20 -75 -22 -107 -26
-470 l-4 -390 -276 -159 c-152 -88 -301 -176 -331 -195 -168 -109 -299 -297
-348 -499 -24 -99 -21 -284 6 -387 44 -164 141 -315 273 -425 37 -31 199 -131
371 -230 l305 -175 4 -395 c4 -365 6 -401 26 -470 29 -105 56 -162 118 -256
110 -166 266 -277 472 -336 61 -18 103 -22 202 -22 215 0 263 19 694 268 261
151 292 166 314 156 13 -6 155 -86 316 -179 323 -187 381 -213 517 -237 352
-61 713 126 869 450 73 152 73 155 79 609 l6 409 300 173 c165 95 328 195 363
220 118 88 218 230 276 394 29 82 30 94 31 241 0 178 -12 235 -75 366 -50 103
-132 208 -214 273 -35 28 -203 131 -372 230 l-309 178 -5 409 -5 409 -33 95
c-95 273 -305 469 -581 541 -105 28 -287 28 -391 1 -110 -29 -156 -52 -482
-240 -163 -95 -302 -172 -309 -172 -7 0 -152 80 -323 178 -171 98 -333 188
-361 199 -106 44 -269 66 -392 53z"/>
</g>
</svg>
