<svg width="720" height="720" xmlns="http://www.w3.org/2000/svg" xmlns:xlink="http://www.w3.org/1999/xlink" xml:space="preserve" overflow="hidden"><defs><clipPath id="clip0"><rect x="280" y="0" width="720" height="720"/></clipPath></defs><g clip-path="url(#clip0)" transform="translate(-280 0)"><path d="M722.749 131.136C722.749 177.569 685.108 215.21 638.675 215.21 592.242 215.21 554.601 177.569 554.601 131.136 554.601 84.7032 592.242 47.062 638.675 47.062 685.108 47.062 722.749 84.7032 722.749 131.136Z" fill="#FFC000"/><path d="M932.982 362.441 854.624 346.096C827.928 340.503 801.572 352.739 787.637 374.492 774.104 367.54 759.551 361.546 744.071 356.571L744.071 309.976C744.102 274.721 715.242 245.892 680.112 245.892L599.993 245.892C564.677 245.892 535.941 274.721 535.941 309.976L535.941 356.817C520.615 361.699 506.217 367.694 492.59 374.677 478.656 352.831 452.268 340.503 425.54 346.096L347.12 362.441C312.699 369.64 290.359 403.783 297.559 438.327L317.241 532.351C324.379 566.802 358.552 589.142 393.005 581.943L417.815 576.751C430.236 595.105 447.416 611.944 469.415 626.343 515.237 656.376 575.768 672.938 640.004 672.938 738.292 672.938 822.954 633.419 861.947 576.658L887.16 581.943C921.581 589.11 955.754 566.802 962.892 532.351L982.605 438.327C989.773 403.783 967.433 369.64 932.982 362.441ZM639.973 640.835C581.946 640.835 527.564 626.22 486.995 599.492 473.091 590.408 461.566 580.305 452.328 569.491L471.33 565.504C505.813 558.336 528.153 524.193 520.953 489.711L503.31 405.173C513.599 399.642 524.414 394.79 535.908 390.651L535.908 406.069C535.908 441.262 564.705 470.091 599.96 470.091L680.079 470.091C715.242 470.091 744.039 441.232 744.039 406.069L744.039 389.847C755.749 394.018 766.749 398.808 776.946 404.246L759.055 489.742C751.917 524.225 774.226 558.368 808.708 565.536L827.895 569.552C792.117 611.914 721.328 640.835 639.973 640.835Z" fill="#FFC000"/><path d="M1000 241.66C1000 288.093 962.359 325.734 915.926 325.734 869.493 325.734 831.852 288.093 831.852 241.66 831.852 195.227 869.493 157.586 915.926 157.586 962.359 157.586 1000 195.227 1000 241.66Z" fill="#FFC000"/><path d="M381.323 323.972C426.805 314.455 455.85 269.87 446.457 224.418 436.878 178.997 392.384 149.829 346.871 159.346 301.45 168.831 272.282 213.387 281.799 258.839 291.286 304.321 335.841 333.459 381.323 323.972Z" fill="#FFC000"/></g></svg>