<svg width="720" height="720" xmlns="http://www.w3.org/2000/svg" xmlns:xlink="http://www.w3.org/1999/xlink" xml:space="preserve" overflow="hidden"><g transform="translate(-280 0)"><path d="M969.991 390.009 879.994 390.009C879.994 373.419 866.584 360.01 849.995 360.01L310.01 360.01C293.45 360.01 280.011 373.419 280.011 390.009L280.011 420.007C280.011 518.195 327.649 605.222 400.788 660.001L340.009 660.001C323.449 660.001 310.01 673.411 310.01 690 310.01 706.559 323.449 719.999 340.009 719.999L789.996 719.999C806.585 719.999 819.995 706.559 819.995 690 819.995 673.411 806.585 660.001 789.996 660.001L759.247 660.001C782.077 642.902 802.356 622.682 819.516 599.883 819.696 599.883 819.846 600.002 819.995 600.002 919.262 600.002 999.99 519.245 999.99 420.007 999.99 403.418 986.581 390.009 969.991 390.009ZM857.434 533.825C868.263 507.516 875.553 479.406 878.493 450.007L936.211 450.007C925.983 489.577 895.953 521.135 857.434 533.825Z" fill="#FFC000"/><path d="M430.017 300C437.697 300 445.378 297.059 451.227 291.21 462.957 279.48 462.957 260.52 451.227 248.791 441.118 238.682 429.148 223.412 429.477 207.993 429.718 196.653 436.738 184.564 450.296 172.084 450.807 171.634 451.316 171.154 451.797 170.644 476.877 147.064 489.866 121.055 490.466 93.3063 491.067 64.3567 477.477 35.1384 451.137 8.79867 439.408-2.93054 420.448-2.93054 408.719 8.79867 396.99 20.5279 396.99 39.4878 408.719 51.217 418.828 61.3263 430.798 76.5963 430.469 92.0154 430.228 103.355 423.209 115.444 409.65 127.924 409.139 128.374 408.63 128.854 408.149 129.364 383.101 152.944 370.081 178.953 369.48 206.702 368.88 235.652 382.469 264.87 408.809 291.21 414.657 297.059 422.338 300 430.017 300Z" fill="#FFC000"/><path d="M580.559 300.011C588.239 300.011 595.949 297.071 601.769 291.221 613.499 279.492 613.499 260.502 601.769 248.802 591.69 238.693 579.69 223.394 580.019 208.004 580.26 196.664 587.28 184.575 600.869 172.095 601.409 171.585 601.949 171.045 602.46 170.505 627.45 146.955 640.409 120.976 641.008 93.2867 641.609 64.337 628.019 35.1187 601.679 8.80851 589.95-2.9207 570.961-2.9207 559.261 8.80851 547.532 20.5082 547.532 39.4977 559.261 51.2269 569.37 61.3361 581.34 76.6062 581.011 91.9958 580.77 103.335 573.751 115.425 560.192 127.905 559.622 128.415 559.082 128.955 558.572 129.495 533.582 153.045 520.622 179.023 520.053 206.713 519.423 235.692 533.013 264.881 559.352 291.221 565.23 297.072 572.91 300.011 580.559 300.011Z" fill="#FFC000"/><path d="M729.545 300.011C737.224 300.011 744.934 297.071 750.755 291.221 762.484 279.492 762.484 260.502 750.755 248.802 740.675 238.693 728.676 223.394 729.005 208.004 729.245 196.664 736.265 184.575 749.855 172.095 750.395 171.585 750.935 171.045 751.445 170.505 776.435 146.955 789.395 120.976 789.994 93.2867 790.594 64.337 777.004 35.1187 750.665 8.80851 738.935-2.9207 719.946-2.9207 708.246 8.80851 696.517 20.5082 696.517 39.4977 708.246 51.2269 718.355 61.3361 730.325 76.6062 729.996 91.9958 729.756 103.335 722.736 115.425 709.177 127.905 708.608 128.415 708.068 128.955 707.557 129.495 682.567 153.045 669.608 179.023 669.038 206.713 668.408 235.692 681.998 264.881 708.338 291.221 714.214 297.072 721.895 300.011 729.545 300.011Z" fill="#FFC000"/></g></svg>