<svg width="254" height="317" xmlns="http://www.w3.org/2000/svg" xmlns:xlink="http://www.w3.org/1999/xlink" xml:space="preserve" overflow="hidden"><g transform="translate(-753 -372)"><path d="M126.239 78.8991 126.239 126.304C118.381 126.416 111.359 126.718 105.286 127.535 94.9424 128.925 85.0272 132.062 76.9848 140.104 68.9423 148.146 65.8062 158.062 64.4156 168.405 63.1178 178.058 63.1185 190.11 63.1192 204.099L63.1192 269.295C63.1185 283.284 63.1178 295.337 64.4156 304.989 65.8062 315.333 68.9423 325.249 76.9848 333.29 85.0272 341.333 94.9424 344.469 105.286 345.86 114.938 347.157 126.991 347.157 140.98 347.156L237.737 347.156C251.724 347.157 263.777 347.157 273.429 345.86 283.773 344.469 293.689 341.333 301.73 333.29 309.773 325.249 312.909 315.333 314.301 304.989 315.598 295.337 315.598 283.284 315.596 269.295L315.596 204.099C315.598 190.11 315.598 178.058 314.301 168.405 312.909 158.062 309.773 148.146 301.73 140.104 293.689 132.062 283.773 128.925 273.429 127.535 267.357 126.718 260.334 126.416 252.477 126.304L252.477 78.8991C252.477 52.7543 231.283 31.5596 205.138 31.5596L173.578 31.5596C147.433 31.5596 126.239 52.7543 126.239 78.8991ZM173.578 63.1192C164.863 63.1192 157.798 70.1842 157.798 78.8991L157.798 126.238 220.917 126.238 220.917 78.8991C220.917 70.1842 213.853 63.1192 205.138 63.1192L173.578 63.1192ZM189.358 205.138C171.927 205.138 157.798 219.267 157.798 236.697 157.798 254.128 171.927 268.257 189.358 268.257 206.788 268.257 220.917 254.128 220.917 236.697 220.917 219.267 206.788 205.138 189.358 205.138Z" fill="#FFC000" fill-rule="evenodd" transform="matrix(1.00047 0 0 1 690.497 341.127)"/></g></svg>